<svg xmlns="http://www.w3.org/2000/svg" xmlns:xlink="http://www.w3.org/1999/xlink" width="500" zoomAndPan="magnify" viewBox="0 0 375 374.999991" height="500" preserveAspectRatio="xMidYMid meet" version="1.0"><defs><g/><clipPath id="d66bafac11"><path d="M 14 137 L 93 137 L 93 224 L 14 224 Z M 14 137 " clip-rule="nonzero"/></clipPath><clipPath id="49f8055204"><path d="M 3.425781 156.207031 L 78.957031 129.097656 L 105.3125 202.507812 L 29.78125 229.621094 Z M 3.425781 156.207031 " clip-rule="nonzero"/></clipPath><clipPath id="cee8d8cea7"><path d="M 3.425781 156.207031 L 78.957031 129.097656 L 105.3125 202.507812 L 29.78125 229.621094 Z M 3.425781 156.207031 " clip-rule="nonzero"/></clipPath><clipPath id="0ee6cb1529"><path d="M 3.433594 156.207031 L 79.023438 129.070312 L 105.421875 202.605469 L 29.832031 229.742188 Z M 3.433594 156.207031 " clip-rule="nonzero"/></clipPath><clipPath id="a5121c31f1"><path d="M 3.433594 156.207031 L 78.988281 129.085938 L 105.335938 202.484375 L 29.78125 229.605469 Z M 3.433594 156.207031 " clip-rule="nonzero"/></clipPath></defs><rect x="-37.5" width="450" fill="#ffffff" y="-37.499999" height="449.999989" fill-opacity="1"/><rect x="-37.5" width="450" fill="#ffffff" y="-37.499999" height="449.999989" fill-opacity="1"/><g clip-path="url(#d66bafac11)"><g clip-path="url(#49f8055204)"><g clip-path="url(#cee8d8cea7)"><g clip-path="url(#0ee6cb1529)"><g clip-path="url(#a5121c31f1)"><path fill="#eca2ad" d="M 45.859375 218.71875 C 45.757812 220.097656 45.203125 222.066406 43.9375 222.921875 C 44.589844 223.214844 45.257812 223.324219 45.917969 222.988281 C 46.292969 222.789062 46.648438 223.453125 46.273438 223.65625 C 44.742188 224.46875 43.296875 223.496094 42.0625 222.546875 C 40.480469 221.328125 39.230469 220.054688 38.347656 218.25 C 37.789062 217.105469 37.34375 215.910156 36.65625 214.828125 C 36.121094 213.980469 35.320312 213.320312 34.769531 212.476562 C 34.136719 211.492188 34.054688 210.113281 35.183594 209.476562 C 35.378906 209.375 35.585938 209.628906 35.386719 209.769531 C 33.5625 211.003906 36.050781 212.992188 36.800781 213.984375 C 37.613281 215.050781 38.113281 216.296875 38.703125 217.476562 C 39.449219 218.960938 40.335938 220.1875 41.628906 221.246094 C 42.148438 221.671875 42.78125 222.242188 43.480469 222.667969 C 44.082031 222.222656 44.546875 221.757812 44.894531 221.019531 C 45.253906 220.261719 45.386719 219.433594 45.648438 218.644531 C 45.679688 218.5 45.878906 218.59375 45.859375 218.71875 Z M 56.386719 213.015625 C 58.117188 211.003906 59.285156 208.445312 59.539062 205.820312 C 59.5625 205.613281 59.84375 205.660156 59.871094 205.832031 C 60.269531 208.375 58.25 211.417969 56.597656 213.1875 C 56.484375 213.328125 56.273438 213.15625 56.386719 213.015625 Z M 84.546875 183.042969 C 82.808594 183.183594 81.234375 183.832031 79.601562 184.351562 C 78.367188 184.746094 76.945312 185.171875 75.652344 184.84375 C 75.5 184.796875 75.507812 184.582031 75.667969 184.570312 C 77.332031 184.40625 78.832031 184.148438 80.429688 183.660156 C 81.785156 183.238281 83.121094 182.855469 84.550781 182.824219 C 84.664062 182.816406 84.691406 183.023438 84.546875 183.042969 Z M 76.257812 195.445312 C 75.328125 195.480469 74.191406 195.457031 73.347656 195 C 73.242188 194.9375 73.28125 194.773438 73.40625 194.796875 C 73.847656 194.867188 74.289062 195.042969 74.730469 195.113281 C 75.226562 195.203125 75.726562 195.253906 76.238281 195.253906 C 76.359375 195.261719 76.371094 195.4375 76.257812 195.445312 Z M 73.605469 157.359375 C 73.804688 156.527344 74.457031 155.582031 75.398438 155.523438 C 75.546875 155.519531 75.628906 155.707031 75.492188 155.789062 C 75.167969 155.988281 74.820312 156.128906 74.519531 156.402344 C 74.226562 156.691406 73.953125 157.035156 73.808594 157.421875 C 73.769531 157.535156 73.578125 157.46875 73.605469 157.359375 Z M 72.152344 167.574219 C 70.339844 171.574219 69.097656 175.960938 65.476562 178.703125 C 65.382812 178.769531 65.28125 178.625 65.375 178.558594 C 67.210938 177.019531 68.464844 175.027344 69.40625 172.851562 C 70.195312 171.027344 70.761719 169.050781 71.871094 167.394531 C 71.980469 167.238281 72.226562 167.414062 72.152344 167.574219 Z M 56.027344 162.527344 C 55.605469 163.160156 55.921875 164.6875 55.96875 165.414062 C 56.035156 166.335938 56.09375 167.242188 56.1875 168.152344 C 56.195312 168.265625 56.019531 168.28125 56.011719 168.167969 C 55.820312 166.761719 55.652344 165.363281 55.546875 163.960938 C 55.507812 163.394531 55.265625 162.585938 55.894531 162.34375 C 56.003906 162.285156 56.078125 162.441406 56.027344 162.527344 Z M 58.855469 153.0625 C 59.253906 151.164062 59.542969 149.253906 59.261719 147.316406 C 58.984375 145.476562 58.488281 143.632812 58.335938 141.78125 C 58.328125 141.621094 58.589844 141.558594 58.632812 141.726562 C 59.144531 143.566406 59.425781 145.601562 59.664062 147.503906 C 59.910156 149.4375 59.480469 151.246094 59.039062 153.113281 C 59.015625 153.222656 58.820312 153.191406 58.855469 153.0625 Z M 57.90625 170.402344 C 57.1875 166.367188 57.160156 162.320312 57.269531 158.238281 C 57.3125 156.234375 57.382812 154.21875 57.347656 152.226562 C 57.316406 150.152344 57.082031 148.117188 56.964844 146.035156 C 56.957031 145.875 57.214844 145.8125 57.257812 145.980469 C 58.195312 149.835938 57.828125 154.078125 57.71875 158.011719 C 57.589844 162.132812 57.417969 166.320312 58.105469 170.398438 C 58.113281 170.511719 57.933594 170.523438 57.90625 170.402344 Z M 30.835938 184.808594 C 32.867188 184.511719 34.914062 184.304688 36.941406 184.09375 C 38.589844 183.929688 40.386719 183.632812 42.042969 183.851562 C 42.234375 183.882812 42.195312 184.144531 42.023438 184.171875 C 40.308594 184.472656 38.484375 184.417969 36.730469 184.566406 C 34.769531 184.738281 32.796875 184.917969 30.839844 185.007812 C 30.722656 185 30.714844 184.835938 30.835938 184.808594 Z M 25.890625 179.34375 C 25.695312 179.347656 25.679688 179.070312 25.863281 179.039062 C 27.527344 178.824219 29.210938 179.128906 30.808594 179.566406 C 30.882812 179.589844 30.863281 179.710938 30.789062 179.6875 C 29.171875 179.292969 27.546875 179.296875 25.890625 179.34375 Z M 22.847656 179.722656 C 26.5625 179.597656 30.449219 179.945312 34.085938 180.660156 C 34.1875 180.671875 34.183594 180.839844 34.070312 180.847656 C 33.957031 180.855469 33.84375 180.863281 33.730469 180.871094 C 33.679688 180.871094 33.65625 180.796875 33.714844 180.777344 C 33.171875 180.972656 31.964844 180.609375 31.363281 180.558594 C 30.46875 180.464844 29.582031 180.386719 28.679688 180.328125 C 26.746094 180.195312 24.820312 180.191406 22.890625 180.121094 C 22.632812 180.097656 22.601562 179.730469 22.847656 179.722656 Z M 31.164062 161.394531 C 33.210938 166.773438 36.074219 171.5625 40.300781 175.546875 C 40.40625 175.65625 40.269531 175.824219 40.152344 175.730469 C 35.902344 171.972656 32.390625 167.035156 30.785156 161.546875 C 30.707031 161.277344 31.058594 161.152344 31.164062 161.394531 Z M 31.613281 152.453125 C 32.363281 153.425781 32.824219 154.621094 33.390625 155.691406 C 34.0625 156.957031 34.835938 158.1875 35.671875 159.363281 C 35.746094 159.484375 35.570312 159.597656 35.5 159.492188 C 34.609375 158.351562 33.792969 157.1875 33.074219 155.921875 C 32.421875 154.746094 31.902344 153.527344 31.113281 152.433594 C 30.972656 152.234375 31.25 152.035156 31.40625 152.195312 C 31.429688 152.121094 31.476562 152.070312 31.570312 152.054688 C 33.363281 151.742188 35.097656 152.460938 36.195312 153.90625 C 36.28125 154.007812 36.105469 154.121094 36.035156 154.011719 C 34.976562 152.71875 33.261719 152.144531 31.613281 152.453125 Z M 45.503906 160.773438 C 43.929688 158.835938 42.589844 156.945312 40.46875 155.519531 C 40.378906 155.453125 40.484375 155.28125 40.574219 155.347656 C 42.617188 156.605469 44.777344 158.382812 45.722656 160.644531 C 45.789062 160.785156 45.589844 160.871094 45.503906 160.773438 Z M 52.632812 183.3125 C 52.886719 183.371094 53.121094 183.421875 53.367188 183.464844 C 53.472656 183.476562 53.570312 183.476562 53.664062 183.457031 C 54.121094 183.90625 54.550781 184.363281 54.980469 184.824219 C 54.191406 184.328125 53.402344 183.832031 52.632812 183.3125 Z M 56.203125 183.375 C 56.421875 183.757812 56.632812 184.164062 56.824219 184.558594 C 56.640625 184.460938 56.472656 184.355469 56.285156 184.253906 C 55.675781 183.613281 55.0625 182.972656 54.496094 182.3125 C 53.394531 181.050781 52.3125 179.785156 51.257812 178.507812 C 51.609375 178.792969 52.003906 179.015625 52.417969 179.117188 C 52.636719 179.167969 52.824219 179.136719 52.960938 179.054688 C 53.054688 179.136719 53.148438 179.203125 53.25 179.265625 C 53.257812 179.277344 53.273438 179.273438 53.292969 179.28125 C 53.273438 179.371094 53.296875 179.480469 53.367188 179.585938 C 54.226562 180.917969 55.414062 181.96875 56.203125 183.375 Z M 61.359375 181.773438 C 61.113281 182.375 60.832031 182.9375 60.527344 183.511719 C 60.683594 182.890625 60.808594 182.269531 60.898438 181.640625 C 61.0625 181.679688 61.210938 181.726562 61.359375 181.773438 Z M 63.546875 177.621094 L 63.542969 177.609375 L 63.5625 177.617188 C 63.558594 177.601562 63.558594 177.601562 63.546875 177.621094 Z M 54.316406 182.824219 C 54.316406 182.824219 54.328125 182.820312 54.316406 182.824219 C 54.316406 182.824219 54.335938 182.835938 54.339844 182.851562 C 54.335938 182.835938 54.335938 182.835938 54.316406 182.824219 Z M 56.558594 181.226562 C 56.515625 181.109375 56.476562 181.003906 56.421875 180.894531 C 56.566406 181.105469 56.6875 181.3125 56.832031 181.527344 C 56.738281 181.410156 56.636719 181.3125 56.558594 181.226562 Z M 58.929688 178.136719 C 58.988281 178.117188 59.039062 178.082031 59.09375 178.046875 C 59.074219 178.269531 59.046875 178.511719 59.027344 178.734375 C 58.972656 178.535156 58.953125 178.34375 58.929688 178.136719 Z M 51.832031 181.3125 C 51.792969 181.296875 51.808594 181.289062 51.832031 181.3125 Z M 41.414062 152.5625 C 40.859375 150.972656 40.054688 149.472656 39.246094 148.003906 C 39.183594 147.878906 38.960938 147.992188 39.023438 148.117188 C 39.664062 149.398438 40.1875 150.714844 40.730469 152.046875 C 40.617188 151.953125 40.503906 151.878906 40.394531 151.800781 C 39.078125 150.898438 37.5625 150.234375 36.015625 149.992188 C 36.027344 149.972656 36.035156 149.953125 36.046875 149.933594 C 36.050781 149.898438 36.070312 149.859375 36.074219 149.824219 C 36.121094 149.640625 35.878906 149.5625 35.753906 149.671875 C 36.132812 149.253906 36.167969 148.5625 36.386719 147.972656 C 36.589844 147.433594 36.871094 146.921875 37.152344 146.421875 C 37.457031 145.882812 37.96875 144.671875 38.574219 144.417969 C 39.136719 144.183594 39.566406 144.828125 40.019531 145.128906 C 42.074219 146.511719 44.824219 147.246094 45.519531 149.929688 C 45.554688 150.066406 45.664062 150.144531 45.789062 150.164062 C 45.527344 152.710938 46.027344 155.3125 46.585938 157.832031 C 46.550781 157.777344 46.515625 157.722656 46.464844 157.675781 C 46.382812 156.394531 45.59375 155.070312 45.125 153.949219 C 44.359375 152.136719 43.640625 150.320312 42.523438 148.683594 C 42.421875 148.539062 42.214844 148.699219 42.300781 148.847656 C 43.242188 150.367188 43.871094 152.027344 44.546875 153.675781 C 44.953125 154.671875 45.597656 155.816406 45.890625 156.953125 C 45.386719 156.386719 44.863281 155.847656 44.355469 155.316406 C 43.402344 154.367188 42.449219 153.417969 41.414062 152.5625 Z M 87.460938 155.898438 C 87.449219 155.90625 87.4375 155.925781 87.421875 155.929688 C 87.390625 155.792969 87.339844 155.644531 87.304688 155.507812 C 87.269531 155.355469 87.003906 155.402344 87.03125 155.574219 C 87.160156 156.488281 87.054688 157.386719 87.105469 158.3125 C 87.117188 158.675781 87.695312 158.714844 87.730469 158.355469 C 87.8125 157.660156 87.683594 156.929688 87.503906 156.25 C 87.546875 156.265625 87.59375 156.265625 87.644531 156.265625 C 88.757812 155.996094 88.449219 158.824219 88.332031 159.199219 C 88.320312 159.253906 88.300781 159.292969 88.285156 159.347656 C 88.132812 159.335938 88.03125 159.554688 88.140625 159.679688 C 87.902344 160.164062 87.554688 160.589844 87.230469 161.019531 C 86.726562 161.695312 86.1875 162.40625 86.382812 163.277344 C 86.429688 163.496094 86.75 163.460938 86.824219 163.300781 C 87.292969 162.355469 87.78125 161.585938 88.382812 160.722656 C 88.492188 160.566406 88.585938 160.417969 88.664062 160.257812 C 89.054688 160.796875 89.273438 161.445312 89.199219 162.117188 C 89.121094 162.875 88.617188 163.453125 88.460938 164.171875 C 88.257812 165.039062 88.332031 165.710938 87.75 166.484375 C 87.265625 167.121094 86.621094 167.632812 86.03125 168.160156 C 84.875 169.1875 83.710938 170.1875 82.535156 171.15625 C 82.535156 171.15625 82.535156 171.15625 82.542969 171.136719 C 83.183594 170.375 83.714844 169.503906 84.300781 168.699219 C 84.96875 167.78125 85.691406 166.890625 86.3125 165.9375 C 86.386719 165.828125 86.246094 165.714844 86.152344 165.816406 C 85.425781 166.605469 84.660156 167.476562 83.957031 168.375 C 84.5 167.21875 85.050781 166.078125 85.761719 165.007812 C 85.890625 164.8125 85.660156 164.632812 85.5 164.789062 C 84.085938 166.15625 83.378906 168.019531 82.445312 169.710938 C 81.898438 170.722656 81.253906 171.648438 80.457031 172.480469 C 79.742188 173.25 78.871094 173.828125 78.175781 174.609375 C 78.175781 174.609375 78.175781 174.609375 78.160156 174.613281 C 77.316406 175.265625 76.453125 175.90625 75.601562 176.542969 C 76.578125 174.453125 76.730469 171.746094 78.210938 170.007812 C 78.292969 169.910156 78.152344 169.796875 78.070312 169.890625 C 77.03125 171.058594 76.53125 172.480469 76.046875 173.949219 C 75.640625 175.171875 75.222656 176.265625 74.585938 177.304688 C 74.386719 177.445312 74.191406 177.597656 73.992188 177.734375 C 74.296875 177.144531 74.527344 176.5 74.699219 175.871094 C 75.496094 173.019531 75.675781 170.1875 77.402344 167.664062 C 77.480469 167.550781 77.320312 167.425781 77.242188 167.539062 C 75.875 169.402344 75.234375 171.355469 74.78125 173.605469 C 74.421875 175.375 73.992188 177.085938 72.988281 178.441406 C 72.105469 179.074219 71.203125 179.695312 70.296875 180.320312 C 68.992188 181.203125 67.671875 182.089844 66.332031 182.933594 C 65.605469 183.394531 64.753906 183.933594 63.886719 184.195312 C 64.074219 183.980469 64.261719 183.761719 64.449219 183.546875 C 65.691406 182.023438 66.902344 180.460938 68.132812 178.941406 C 68.222656 178.828125 68.054688 178.6875 67.960938 178.789062 C 66.890625 180.050781 65.796875 181.304688 64.730469 182.582031 C 64.222656 183.195312 63.714844 183.808594 63.144531 184.34375 C 62.902344 184.367188 62.652344 184.355469 62.417969 184.308594 C 62.722656 183.402344 62.925781 182.484375 63.058594 181.527344 C 63.0625 181.492188 63.0625 181.441406 63.066406 181.40625 C 63.125 181.289062 63.164062 181.171875 63.183594 181.035156 C 63.394531 180.890625 63.53125 180.628906 63.316406 180.390625 C 63.308594 180.375 63.289062 180.367188 63.285156 180.351562 C 63.5625 179.605469 63.882812 178.878906 64.28125 178.1875 C 64.414062 177.957031 64.300781 177.734375 64.125 177.613281 C 64.242188 177.574219 64.355469 177.515625 64.449219 177.414062 C 64.753906 177.105469 65.007812 176.519531 65.140625 175.875 C 65.277344 175.609375 65.394531 175.335938 65.511719 175.0625 C 66.082031 173.746094 66.621094 172.425781 67.179688 171.117188 C 67.238281 170.960938 67.019531 170.859375 66.9375 171.003906 C 66.371094 172.234375 65.851562 173.5625 65.203125 174.808594 C 65.164062 173.8125 64.707031 173 63.585938 173.25 C 62.664062 173.449219 62.242188 174.445312 62.058594 175.273438 C 61.851562 176.175781 61.917969 177.148438 62.378906 177.960938 C 62.546875 178.246094 62.828125 178.296875 63.074219 178.191406 C 62.722656 178.699219 62.429688 179.21875 62.175781 179.753906 C 61.839844 179.695312 61.492188 179.703125 61.148438 179.757812 C 61.414062 177.542969 61.472656 175.300781 61.484375 173.078125 C 61.492188 172.910156 61.234375 172.933594 61.246094 173.097656 C 61.171875 175.34375 61.070312 177.601562 60.746094 179.835938 C 60.640625 179.859375 60.546875 179.875 60.445312 179.914062 C 59.746094 180.097656 59.761719 181.152344 60.371094 181.414062 C 60.390625 181.425781 60.429688 181.441406 60.449219 181.453125 C 60.234375 182.425781 59.964844 183.382812 59.691406 184.324219 C 59.515625 183.695312 59.414062 183.050781 59.367188 182.40625 C 59.304688 181.679688 59.296875 180.972656 59.222656 180.253906 C 59.398438 179.261719 59.484375 178.253906 59.546875 177.234375 C 59.707031 174.808594 59.796875 172.390625 59.917969 169.960938 C 59.921875 169.828125 59.683594 169.8125 59.667969 169.953125 C 59.507812 172.132812 59.339844 174.296875 59.175781 176.476562 C 58.765625 175.097656 58.078125 172.726562 56.550781 173.226562 C 55.734375 173.484375 55.820312 174.28125 56.046875 174.914062 C 56.347656 175.75 56.699219 177.050781 57.441406 177.59375 C 57.550781 177.671875 57.675781 177.691406 57.789062 177.6875 C 57.851562 177.863281 58.003906 178.007812 58.167969 178.097656 C 58.046875 178.917969 57.789062 179.722656 57.707031 180.546875 C 57.699219 180.667969 57.691406 180.785156 57.679688 180.890625 C 57.5625 180.566406 57.425781 180.234375 57.292969 179.902344 C 56.308594 177.4375 55.292969 174.984375 54.394531 172.476562 C 52.585938 167.390625 51.21875 162.148438 50.941406 156.765625 C 50.933594 156.601562 50.671875 156.613281 50.683594 156.789062 C 50.882812 161.773438 51.984375 166.644531 53.550781 171.371094 C 54.34375 173.769531 55.242188 176.128906 56.199219 178.472656 C 56.515625 179.269531 56.855469 180.074219 57.160156 180.875 C 55.652344 178.566406 53.925781 176.339844 52.78125 173.847656 C 50.746094 169.378906 49.769531 164.441406 49.121094 159.589844 C 49.105469 159.496094 48.957031 159.5 48.972656 159.59375 C 49.449219 163.496094 50.03125 167.382812 51.285156 171.105469 C 49.585938 167.109375 48.488281 162.898438 47.550781 158.675781 C 46.699219 154.824219 45.476562 150.308594 47.511719 146.613281 C 47.980469 145.75 48.605469 144.996094 49.40625 144.410156 C 49.984375 143.984375 50.632812 143.671875 51.117188 143.132812 C 50.402344 144.929688 50.207031 147.054688 50.265625 148.886719 C 50.277344 149.050781 50.519531 149.03125 50.523438 148.863281 C 50.546875 147.59375 50.675781 146.339844 50.984375 145.117188 C 51.261719 143.992188 51.753906 142.96875 52.089844 141.871094 C 52.113281 141.796875 52.050781 141.71875 51.976562 141.695312 C 52.0625 141.515625 52.152344 141.351562 52.257812 141.183594 C 53.03125 139.875 54.410156 139.664062 55.695312 140.328125 L 55.714844 140.335938 C 55.839844 140.542969 56.144531 140.429688 56.089844 140.1875 C 55.917969 139.75 55.988281 139.394531 56.292969 139.085938 C 56.410156 138.679688 56.691406 138.53125 57.117188 138.660156 C 57.746094 138.613281 58.027344 138.746094 58.539062 139.109375 C 59.113281 139.515625 59.613281 140.03125 60.011719 140.585938 C 60.832031 141.714844 61.324219 143.046875 61.519531 144.417969 C 61.730469 145.832031 61.648438 147.269531 61.445312 148.6875 C 61.25 149.984375 60.839844 151.289062 60.882812 152.617188 C 60.902344 152.988281 61.476562 153.015625 61.542969 152.644531 C 61.554688 152.589844 61.554688 152.539062 61.566406 152.484375 C 61.613281 152.519531 61.695312 152.523438 61.738281 152.457031 C 62.496094 151.425781 62.984375 150.105469 63.84375 149.132812 C 63.84375 150.707031 63.371094 152.15625 63.039062 153.679688 C 62.695312 155.3125 62.503906 156.9375 62.351562 158.601562 C 62.335938 158.738281 62.554688 158.792969 62.582031 158.632812 C 62.828125 156.789062 63.175781 154.941406 63.605469 153.128906 C 63.925781 151.804688 64.613281 150.265625 64.109375 148.90625 C 64.105469 148.890625 64.097656 148.878906 64.078125 148.867188 C 64.238281 148.710938 64.417969 148.5625 64.601562 148.429688 C 66.421875 147.179688 68.253906 147.949219 69.359375 149.640625 C 69.476562 149.828125 69.820312 149.722656 69.785156 149.488281 C 69.492188 147.703125 67.4375 146.867188 65.816406 147.25 C 63.710938 147.757812 62.476562 150.039062 61.667969 151.9375 C 62.378906 148.152344 63.214844 143.875 60.839844 140.488281 C 60.09375 139.429688 58.628906 137.933594 57.195312 137.953125 C 56.1875 137.964844 55.414062 138.988281 55.601562 139.929688 C 54.847656 139.488281 53.933594 139.4375 53.097656 139.785156 C 51.714844 140.363281 51.546875 141.933594 50.507812 142.867188 C 49.359375 143.910156 48.109375 144.445312 47.222656 145.804688 C 46.617188 146.75 46.203125 147.8125 45.964844 148.90625 C 45.507812 147.8125 44.636719 147 43.617188 146.335938 C 42.953125 145.914062 42.230469 145.558594 41.546875 145.175781 C 40.761719 144.746094 40.125 144.128906 39.371094 143.6875 C 38.265625 143.054688 37.417969 144.667969 36.972656 145.457031 C 36.226562 146.789062 35.367188 148.273438 35.472656 149.859375 C 35.476562 149.871094 35.480469 149.886719 35.480469 149.886719 C 34.21875 149.777344 32.9375 149.957031 31.714844 150.5625 C 31.488281 150.675781 31.605469 151.046875 31.851562 150.941406 C 38.101562 148.367188 43.820312 155.527344 46.949219 159.90625 C 46.980469 159.941406 47.023438 159.976562 47.0625 159.996094 C 47.902344 163.804688 48.925781 167.578125 50.417969 171.183594 C 51.671875 174.214844 53.535156 176.957031 55.007812 179.859375 C 54.679688 179.597656 54.367188 179.328125 54.105469 179.007812 C 54.007812 178.878906 53.875 178.824219 53.761719 178.832031 C 53.890625 177.394531 52.273438 174.875 50.714844 175.152344 C 49.746094 175.320312 49.683594 176.203125 50.007812 176.917969 C 47.117188 173.347656 44.339844 169.671875 41.730469 165.902344 C 41.632812 165.773438 41.433594 165.910156 41.53125 166.042969 C 44.171875 169.980469 46.925781 173.832031 49.910156 177.53125 C 50.988281 178.867188 52.089844 180.179688 53.199219 181.46875 C 52.933594 181.285156 52.648438 181.136719 52.363281 180.992188 C 50.523438 179.234375 48.761719 177.414062 47.070312 175.519531 C 43.675781 171.699219 40.644531 167.585938 37.824219 163.328125 C 37.761719 163.253906 37.640625 163.328125 37.691406 163.425781 C 40.371094 168.03125 43.5625 172.304688 47.105469 176.269531 C 48.457031 177.769531 49.863281 179.238281 51.308594 180.640625 C 51.273438 180.636719 51.234375 180.617188 51.214844 180.609375 C 50.832031 180.511719 50.347656 180.820312 50.3125 181.230469 C 50.296875 181.371094 50.308594 181.496094 50.320312 181.625 C 47.503906 179.503906 44.90625 177.058594 42.882812 174.152344 C 42.789062 174.023438 42.601562 174.15625 42.6875 174.292969 C 44.730469 177.453125 47.398438 180.039062 50.421875 182.269531 C 51.839844 183.316406 53.316406 184.292969 54.824219 185.210938 C 55.117188 185.386719 55.402344 185.582031 55.703125 185.773438 C 54.859375 185.730469 53.988281 185.742188 53.15625 185.695312 C 52.96875 185.679688 52.90625 185.964844 53.101562 185.996094 C 54.230469 186.105469 55.441406 186.332031 56.59375 186.363281 C 56.640625 186.398438 56.6875 186.429688 56.742188 186.445312 C 56.90625 186.585938 57.085938 186.71875 57.269531 186.851562 C 57.238281 186.863281 57.195312 186.878906 57.15625 186.910156 C 56.996094 187.015625 56.839844 187.140625 56.683594 187.261719 C 55.347656 187.277344 53.992188 187.464844 52.648438 187.464844 C 50.738281 187.488281 48.816406 187.402344 46.921875 187.152344 C 46.78125 187.136719 46.726562 187.355469 46.886719 187.382812 C 49.714844 187.875 52.84375 188.191406 55.78125 187.882812 C 54.894531 188.367188 54.0625 188.765625 53.003906 188.960938 C 51.929688 189.148438 50.828125 189.179688 49.746094 189.207031 C 49.546875 189.210938 49.585938 189.496094 49.765625 189.496094 C 51.054688 189.53125 52.667969 189.597656 54.078125 189.222656 C 54 189.285156 53.921875 189.347656 53.839844 189.394531 C 52.453125 190.335938 51.015625 190.851562 49.363281 191.097656 C 46.488281 191.535156 43.886719 191.804688 41.195312 193.035156 C 36.347656 195.273438 30.472656 199.253906 25.445312 195.175781 C 25.304688 195.0625 25.058594 195.25 25.199219 195.414062 C 29.113281 200.140625 35.832031 196.652344 40.085938 194.511719 C 41.542969 193.773438 43.015625 193.078125 44.605469 192.65625 C 45.933594 192.296875 47.308594 192.199219 48.671875 192.027344 C 42.503906 195.25 38.59375 201.574219 35.246094 207.480469 C 34.992188 207.921875 35.703125 208.246094 35.964844 207.820312 C 39.566406 201.65625 43.160156 195.328125 49.699219 191.890625 C 49.746094 191.886719 49.804688 191.867188 49.855469 191.867188 C 50.585938 191.734375 51.265625 191.542969 51.917969 191.289062 C 51.125 191.988281 50.382812 192.738281 49.671875 193.472656 C 48.21875 194.972656 46.742188 196.578125 45.667969 198.390625 C 45.203125 199.167969 44.882812 199.980469 44.664062 200.855469 C 44.394531 201.996094 43.898438 202.785156 43.3125 203.777344 C 42.363281 205.339844 41.78125 207.273438 41.878906 209.109375 C 41.886719 209.222656 42.054688 209.230469 42.082031 209.121094 C 42.273438 206.929688 42.839844 205.1875 44.0625 203.375 C 45.035156 201.929688 45.105469 200.234375 45.972656 198.726562 C 47.921875 195.34375 50.984375 192.835938 53.878906 190.289062 C 55.160156 189.515625 56.339844 188.5625 57.53125 187.585938 C 57.589844 187.566406 57.644531 187.53125 57.65625 187.476562 C 57.738281 187.378906 57.777344 187.25 57.753906 187.140625 C 57.878906 187.214844 57.988281 187.289062 58.128906 187.355469 C 56.316406 188.769531 54.585938 190.316406 53.132812 192.082031 C 51.355469 194.242188 50.347656 196.660156 49.839844 199.394531 C 49.542969 201.007812 49.300781 202.601562 48.769531 204.167969 C 48.238281 205.734375 47.519531 207.234375 46.949219 208.78125 C 46.03125 211.265625 45.460938 214.007812 46.410156 216.5625 C 46.453125 216.683594 46.628906 216.617188 46.585938 216.5 C 45.648438 213.425781 46.691406 210.464844 47.871094 207.621094 C 48.945312 205.066406 49.722656 202.617188 50.21875 199.886719 C 50.730469 197.070312 51.65625 194.617188 53.488281 192.382812 C 54.878906 190.675781 56.558594 189.261719 58.242188 187.859375 C 58.125 188.085938 58.007812 188.3125 57.882812 188.519531 C 57.101562 189.945312 56.390625 191.375 55.730469 192.855469 C 54.421875 195.777344 53.441406 198.765625 52.664062 201.859375 C 52.628906 201.988281 52.820312 202.019531 52.855469 201.890625 C 53.691406 199.089844 54.710938 196.304688 55.890625 193.628906 C 56.429688 192.40625 57.007812 191.203125 57.625 190.019531 C 58 189.308594 58.363281 188.515625 58.820312 187.804688 C 58.953125 189.609375 58.871094 191.414062 58.519531 193.195312 C 58.308594 194.316406 57.988281 195.410156 57.570312 196.46875 C 57.273438 197.253906 56.773438 198.03125 56.714844 198.882812 C 56.648438 199.949219 56.953125 200.933594 56.753906 202.03125 C 56.550781 203.132812 56.101562 204.1875 55.582031 205.1875 C 54.5625 207.144531 53.246094 208.925781 52.414062 210.996094 C 52.363281 211.128906 52.566406 211.238281 52.632812 211.097656 C 53.496094 208.984375 54.941406 207.1875 56.011719 205.183594 C 56.980469 203.359375 57.382812 201.574219 57.171875 199.511719 C 57.050781 198.246094 57.820312 197.109375 58.230469 195.949219 C 58.558594 195.019531 58.800781 194.074219 58.980469 193.097656 C 59.300781 191.359375 59.390625 189.585938 59.257812 187.828125 C 59.277344 187.835938 59.320312 187.855469 59.339844 187.867188 C 59.402344 187.910156 59.464844 187.9375 59.53125 187.945312 C 59.707031 188.015625 59.867188 188.089844 60.039062 188.160156 C 60.058594 188.167969 60.074219 188.164062 60.089844 188.160156 C 60.390625 189.460938 60.269531 190.960938 60.292969 192.230469 C 60.320312 193.875 60.3125 195.519531 60.242188 197.167969 C 60.238281 197.300781 60.476562 197.316406 60.480469 197.183594 C 60.605469 195.363281 60.703125 193.558594 60.695312 191.738281 C 60.683594 190.414062 60.839844 188.867188 60.367188 187.59375 C 60.546875 187.449219 60.714844 187.273438 60.878906 187.082031 C 61.644531 189.90625 62.488281 192.667969 62.652344 195.625 C 62.820312 198.761719 61.914062 201.871094 62.550781 204.988281 C 62.609375 205.28125 63.0625 205.253906 63.019531 204.953125 C 62.515625 201.703125 63.53125 198.4375 63.347656 195.15625 C 63.253906 193.46875 62.972656 191.761719 62.582031 190.066406 C 62.804688 190.464844 63.03125 190.863281 63.261719 191.230469 C 64.621094 193.394531 66.058594 195.511719 67.523438 197.601562 C 67.628906 197.761719 67.867188 197.59375 67.773438 197.429688 C 66.601562 195.363281 65.390625 193.332031 64.132812 191.296875 C 63.546875 190.363281 63.007812 189.414062 62.605469 188.382812 C 62.253906 187.496094 62.074219 186.585938 61.832031 185.675781 C 61.863281 185.667969 61.902344 185.636719 61.929688 185.625 C 62.050781 185.867188 62.175781 186.117188 62.308594 186.351562 C 62.359375 186.816406 62.582031 187.164062 62.890625 187.46875 C 63.632812 188.84375 64.433594 190.195312 65.433594 191.328125 C 66.761719 192.804688 68.480469 193.761719 70.386719 194.273438 C 70.550781 194.3125 70.59375 194.066406 70.4375 194.003906 C 67.246094 193.097656 65.390625 190.746094 63.847656 188.101562 C 64.246094 188.292969 64.664062 188.4375 65.054688 188.5625 C 66.101562 188.886719 67.15625 189.152344 68.234375 189.34375 C 69.316406 189.535156 70.699219 189.46875 71.546875 190.257812 C 71.648438 190.355469 71.773438 190.195312 71.671875 190.097656 C 70.683594 189.144531 69.128906 189.207031 67.867188 188.914062 C 66.347656 188.5625 64.386719 188.222656 63.277344 187.066406 C 63.023438 186.59375 62.765625 186.105469 62.511719 185.632812 C 63.710938 186.246094 64.9375 186.800781 66.242188 187.109375 C 68.160156 187.566406 70.140625 187.351562 72.097656 187.359375 C 76.398438 187.390625 80.746094 188.050781 84.859375 189.308594 C 84.96875 189.335938 84.992188 189.175781 84.894531 189.128906 C 81.113281 187.917969 77.261719 187.164062 73.300781 186.980469 C 71.246094 186.886719 69.128906 187.117188 67.105469 186.800781 C 65.667969 186.570312 64.316406 185.996094 63.011719 185.355469 C 67.6875 185.234375 72.421875 184.015625 76.859375 182.71875 C 79.277344 182.019531 81.992188 181.457031 84.234375 180.320312 C 86.515625 179.152344 87.605469 176.558594 90.382812 176.359375 C 90.757812 176.339844 90.765625 175.804688 90.417969 175.714844 C 88.226562 175.191406 86.675781 177.289062 85.230469 178.570312 C 83.242188 180.328125 80.113281 180.839844 77.628906 181.582031 C 73.605469 182.792969 69.609375 183.75 65.511719 184.390625 C 66.933594 183.679688 68.273438 182.621094 69.3125 181.914062 C 72.878906 179.527344 76.359375 176.984375 79.699219 174.292969 C 81.347656 172.972656 82.964844 171.613281 84.554688 170.230469 C 85.855469 169.101562 87.515625 167.957031 88.484375 166.5 C 88.835938 165.960938 88.96875 165.449219 89.054688 164.804688 C 89.164062 163.871094 89.683594 163.105469 89.820312 162.191406 C 89.964844 161.164062 89.585938 160.242188 88.859375 159.605469 C 89.007812 159.238281 89.105469 158.855469 89.125 158.449219 C 89.210938 157.773438 88.878906 154.992188 87.460938 155.898438 Z M 88.21875 188.699219 C 88.492188 187.9375 88.488281 187.375 88.265625 186.613281 C 88.128906 186.144531 87.992188 185.714844 88.289062 185.292969 C 88.398438 185.140625 88.640625 185.21875 88.695312 185.363281 C 88.824219 185.679688 88.820312 186.03125 88.890625 186.371094 C 88.953125 186.679688 89.03125 187 89.050781 187.324219 C 89.054688 187.886719 88.894531 188.457031 88.539062 188.898438 C 88.382812 189.070312 88.140625 188.894531 88.21875 188.699219 Z M 72.792969 198.941406 C 74.769531 199.324219 76.109375 198.265625 77.90625 197.769531 C 78.769531 197.542969 79.617188 197.652344 80.503906 197.582031 C 81.46875 197.5 82.316406 197.132812 83.082031 196.589844 C 81.574219 196.21875 80.160156 195.699219 78.574219 195.625 C 78.472656 195.609375 78.476562 195.441406 78.582031 195.457031 C 80.175781 195.511719 81.980469 195.59375 83.425781 196.351562 C 84.59375 195.453125 85.582031 194.417969 86.445312 193.261719 C 86.421875 193.253906 86.398438 193.230469 86.375 193.207031 C 84.914062 191.261719 82.449219 191.136719 80.222656 190.707031 C 80.082031 190.675781 80.125 190.476562 80.265625 190.496094 C 82.425781 190.746094 85.402344 190.820312 86.648438 192.957031 C 86.859375 192.667969 87.050781 192.367188 87.25 192.046875 C 87.398438 191.8125 87.699219 191.917969 87.695312 192.183594 C 87.574219 194.015625 85.628906 195.511719 84.351562 196.617188 C 83.511719 197.332031 82.582031 197.964844 81.488281 198.238281 C 80.363281 198.527344 79.207031 198.261719 78.09375 198.53125 C 76.980469 198.796875 76 199.429688 74.859375 199.625 C 74.015625 199.761719 73.160156 199.6875 72.335938 199.421875 C 70.691406 198.902344 69.121094 197.808594 67.84375 196.691406 C 67.675781 196.554688 67.882812 196.296875 68.0625 196.429688 C 69.546875 197.472656 70.957031 198.589844 72.792969 198.941406 Z M 91.980469 182.742188 C 92.527344 183.804688 91.925781 185.132812 91.539062 186.132812 C 91.390625 186.5 91.179688 186.890625 91.085938 187.273438 C 90.832031 188.175781 91.132812 188.367188 91.261719 189.097656 C 91.347656 189.566406 91.316406 190.039062 91.171875 190.507812 C 91 191.046875 90.675781 191.578125 90.210938 191.894531 C 90.234375 193.808594 88.917969 195.359375 87.410156 196.414062 C 85.21875 197.929688 82.664062 199.027344 80.300781 200.242188 C 78.316406 201.269531 76.152344 202.441406 73.839844 202.226562 C 71.816406 202.042969 69.792969 200.648438 68.605469 199.054688 C 68.378906 198.738281 68.800781 198.4375 69.066406 198.625 C 70.914062 199.847656 72.191406 201.511719 74.625 201.417969 C 76.613281 201.332031 78.460938 200.289062 80.183594 199.40625 C 82.15625 198.398438 84.207031 197.464844 86.136719 196.371094 C 87.867188 195.386719 89.351562 194.074219 89.742188 192.113281 C 89.640625 192.148438 89.546875 192.167969 89.4375 192.1875 C 89.296875 192.207031 89.171875 192 89.28125 191.894531 C 89.699219 191.480469 90.183594 191.125 90.4375 190.585938 C 90.878906 189.648438 90.4375 189.0625 90.3125 188.164062 C 90.207031 187.355469 90.675781 186.589844 90.964844 185.875 C 91.125 185.484375 91.277344 185.082031 91.386719 184.695312 C 91.558594 184.070312 91.5625 183.15625 91.109375 182.625 C 90.800781 182.273438 90.128906 182.164062 89.742188 181.90625 C 89.035156 181.414062 88.671875 180.683594 88.710938 179.824219 C 88.710938 179.691406 88.949219 179.605469 88.972656 179.765625 C 89.261719 181.035156 89.964844 181.378906 91.011719 181.898438 C 91.417969 182.101562 91.765625 182.339844 91.980469 182.742188 Z M 91.976562 177.242188 C 92.28125 177.679688 92.054688 178.109375 91.777344 178.492188 C 91.242188 179.214844 90.664062 180.050781 90.007812 180.667969 C 89.847656 180.824219 89.507812 180.664062 89.640625 180.433594 C 89.933594 179.949219 90.3125 179.53125 90.667969 179.089844 C 90.875 178.832031 91.621094 178.148438 91.628906 177.699219 C 91.132812 177.84375 90.621094 177.714844 90.253906 177.332031 C 90.152344 177.234375 90.21875 177.097656 90.320312 177.058594 C 89.398438 176.941406 88.625 178.015625 88.132812 178.671875 C 87.570312 179.421875 87.222656 180.242188 86.84375 181.089844 C 86.789062 181.210938 86.585938 181.148438 86.621094 181.019531 C 86.871094 179.773438 87.542969 178.601562 88.398438 177.664062 C 88.972656 177.046875 89.707031 176.320312 90.601562 176.691406 C 90.816406 176.78125 90.703125 177.15625 90.476562 177.085938 C 90.476562 177.085938 90.464844 177.089844 90.457031 177.074219 C 90.8125 177.328125 91.257812 177.367188 91.648438 177.160156 C 91.746094 177.109375 91.898438 177.121094 91.976562 177.242188 Z M 63.398438 205.777344 C 64.378906 207.398438 64.5 209.539062 64.089844 211.34375 C 63.976562 211.867188 63.816406 212.902344 63.28125 213.160156 C 62.757812 213.414062 62.226562 212.578125 61.828125 212.667969 C 61.851562 212.726562 61.851562 212.777344 61.84375 212.847656 C 61.289062 215.414062 58.785156 217.160156 56.757812 218.566406 C 55.40625 219.515625 54 220.484375 52.429688 221.046875 C 50.832031 221.636719 49.101562 221.664062 47.488281 222.191406 C 47.308594 222.253906 47.214844 221.992188 47.386719 221.914062 C 48.734375 221.28125 50.15625 221.050781 51.5625 220.578125 C 53.085938 220.066406 54.4375 219.214844 55.75 218.296875 C 58.03125 216.71875 60.007812 215.210938 61.167969 212.625 C 61.253906 212.445312 61.417969 212.402344 61.5625 212.433594 C 61.785156 212.222656 61.828125 212.207031 62.183594 212.226562 C 62.554688 212.242188 62.445312 212.449219 62.824219 212.394531 C 63.375 212.3125 63.339844 211.710938 63.457031 211.207031 C 63.839844 209.363281 63.429688 207.753906 62.898438 206.003906 C 62.824219 205.75 63.234375 205.503906 63.398438 205.777344 Z M 34.824219 176.484375 C 34.984375 176.425781 35.148438 176.367188 35.324219 176.304688 C 35.488281 176.261719 35.65625 176.167969 35.808594 176.132812 C 35.820312 176.125 35.851562 176.117188 35.867188 176.109375 C 37.003906 176.976562 38.207031 177.789062 39.480469 178.472656 C 39.582031 178.519531 39.667969 178.539062 39.761719 178.523438 C 40.105469 178.828125 40.457031 179.117188 40.808594 179.40625 C 39.207031 178.773438 37.628906 178.113281 36.046875 177.355469 C 35.546875 177.121094 35.042969 176.871094 34.53125 176.640625 C 34.609375 176.578125 34.707031 176.527344 34.824219 176.484375 Z M 15.285156 185.105469 C 15.242188 183.828125 14.878906 182.585938 15.417969 181.363281 C 16.132812 179.765625 17.699219 178.722656 18.554688 177.1875 C 18.625 177.195312 18.703125 177.183594 18.78125 177.121094 C 20.628906 175.714844 22.535156 174.882812 24.871094 174.789062 C 27.042969 174.703125 29.183594 175.261719 31.191406 176.015625 C 34.691406 177.3125 38.054688 179.484375 41.757812 180.160156 C 42.28125 180.550781 42.8125 180.921875 43.375 181.285156 C 44.890625 182.28125 46.484375 183.167969 48.152344 183.894531 C 49.808594 184.625 51.675781 185.445312 53.484375 185.675781 C 53.863281 185.722656 54.105469 185.15625 53.699219 184.984375 C 51.992188 184.289062 50.199219 183.871094 48.519531 183.117188 C 46.765625 182.335938 45.058594 181.410156 43.460938 180.328125 C 40.4375 178.28125 37.757812 175.746094 35.546875 172.828125 C 34.222656 171.066406 33.078125 169.175781 32.03125 167.230469 C 31.015625 165.324219 29.785156 163.28125 29.578125 161.085938 C 29.40625 159.273438 29.820312 157.46875 29.820312 155.664062 C 29.820312 154.933594 29.753906 154.195312 29.550781 153.492188 C 29.453125 153.128906 29.117188 152.652344 29.101562 152.277344 C 28.996094 150.558594 30.445312 151.496094 30.960938 151.824219 C 31.152344 151.953125 31.339844 151.640625 31.183594 151.480469 C 30.546875 150.914062 29.253906 150.167969 28.601562 151.113281 C 27.953125 152.042969 29.042969 153.691406 29.148438 154.628906 C 29.292969 155.953125 29.105469 157.28125 28.988281 158.613281 C 28.570312 158 28.042969 157.414062 27.621094 156.835938 C 27.523438 156.703125 27.3125 156.847656 27.40625 156.976562 C 27.902344 157.710938 28.351562 158.59375 28.945312 159.277344 C 28.941406 159.410156 28.921875 159.53125 28.917969 159.667969 C 28.90625 160.050781 28.917969 160.445312 28.933594 160.820312 C 27.644531 159.578125 25.90625 158.195312 25.289062 156.527344 C 25.238281 156.382812 25.003906 156.464844 25.054688 156.613281 C 25.691406 158.523438 27.472656 160.117188 28.945312 161.445312 C 28.96875 161.46875 28.988281 161.480469 29.011719 161.488281 C 29.152344 162.53125 29.480469 163.539062 29.929688 164.554688 C 31.515625 168.144531 33.472656 171.519531 35.898438 174.492188 C 33.234375 171.503906 30.421875 168.605469 28.3125 165.21875 C 28.230469 165.082031 28.015625 165.226562 28.097656 165.363281 C 29.421875 167.621094 31.050781 169.621094 32.757812 171.609375 C 33.417969 172.382812 34.066406 173.226562 34.75 174.058594 C 34.148438 173.546875 33.566406 173.027344 32.992188 172.488281 C 30.90625 170.550781 28.671875 168.621094 27.210938 166.128906 C 25.816406 163.761719 24.589844 160.90625 23.949219 158.234375 C 23.609375 156.832031 23.570312 155.242188 24.304688 153.964844 C 25.09375 152.605469 26.628906 152.085938 28.089844 152.558594 C 28.320312 152.640625 28.40625 152.277344 28.21875 152.179688 C 26.089844 150.957031 23.785156 152.792969 23.1875 154.863281 C 22.304688 157.898438 24.039062 161.351562 25.210938 164.0625 C 25.878906 165.59375 26.660156 167.085938 27.699219 168.40625 C 28.75 169.71875 30.007812 170.871094 31.21875 172.03125 C 32.582031 173.328125 33.984375 174.613281 35.464844 175.773438 C 35.394531 175.765625 35.34375 175.765625 35.265625 175.777344 C 35.078125 175.8125 34.878906 175.851562 34.6875 175.921875 C 34.433594 175.996094 34.070312 176.09375 33.902344 176.320312 C 32.589844 175.710938 31.265625 175.160156 29.871094 174.734375 C 26.164062 173.59375 21.132812 173.429688 18.3125 176.597656 C 18.230469 176.691406 18.21875 176.796875 18.253906 176.898438 C 17.0625 178.800781 14.75 180.011719 14.484375 182.410156 C 14.339844 183.722656 14.53125 185.128906 14.507812 186.445312 C 14.496094 187.707031 15.085938 188.425781 16.015625 189.21875 C 16.371094 189.519531 16.847656 188.953125 16.476562 188.65625 C 15.746094 188.054688 15.234375 187.460938 15.210938 186.472656 C 15.222656 186.039062 15.292969 185.582031 15.285156 185.105469 Z M 23.554688 195.128906 C 21.683594 195.21875 19.960938 193.882812 18.683594 192.21875 C 18.664062 192.210938 18.632812 192.21875 18.613281 192.210938 C 18.457031 192.183594 18.417969 192.035156 18.460938 191.917969 C 17.632812 190.773438 17.007812 189.492188 16.683594 188.449219 C 16.421875 187.578125 16.359375 186.707031 16.480469 185.804688 C 16.65625 184.628906 16.628906 183.628906 16.5 182.449219 C 16.347656 181.046875 16.386719 179.640625 17.570312 178.683594 C 17.75 178.539062 17.933594 178.820312 17.773438 178.976562 C 16.308594 180.296875 17.167969 182.324219 17.304688 183.949219 C 17.382812 184.898438 17.195312 185.761719 17.164062 186.652344 C 21.773438 186.652344 26.382812 186.671875 30.996094 186.691406 C 33.335938 186.695312 35.695312 186.710938 38.039062 186.730469 C 40.28125 186.753906 42.527344 186.875 44.769531 186.601562 C 44.875 186.578125 44.882812 186.742188 44.777344 186.765625 C 40.292969 187.476562 35.566406 187.136719 31.042969 187.136719 C 26.421875 187.140625 21.796875 187.140625 17.171875 187.128906 C 17.1875 187.539062 17.253906 187.960938 17.390625 188.390625 C 17.824219 189.644531 18.515625 190.871094 19.425781 191.886719 C 21.144531 192.148438 22.886719 192.25 24.625 192.15625 C 26.285156 192.074219 27.914062 191.757812 29.558594 191.546875 C 31.148438 191.355469 32.511719 191.597656 34.0625 191.953125 C 35.828125 192.34375 37.648438 192.4375 39.441406 192.207031 C 39.535156 192.191406 39.558594 192.347656 39.449219 192.371094 C 37.8125 192.609375 36.21875 192.652344 34.582031 192.378906 C 32.707031 192.054688 31.097656 191.722656 29.195312 192.007812 C 26.050781 192.476562 23.042969 192.777344 19.925781 192.402344 C 20.964844 193.40625 22.199219 194.171875 23.613281 194.507812 C 23.9375 194.574219 23.929688 195.109375 23.554688 195.128906 Z M 70.125 154.171875 C 70.324219 154.363281 70.574219 154.636719 70.835938 154.808594 C 70.082031 155.578125 69.421875 156.410156 68.886719 157.363281 C 67.796875 159.3125 67.171875 161.457031 65.6875 163.136719 C 65.894531 162.234375 66.105469 161.34375 66.367188 160.457031 C 67.085938 158.027344 68.453125 155.796875 69.34375 153.421875 C 69.574219 153.703125 69.871094 153.929688 70.125 154.171875 Z M 69.839844 150.097656 C 69.058594 153.742188 66.839844 156.789062 65.714844 160.308594 C 65.113281 162.183594 64.699219 164.121094 64.257812 166.035156 C 63.746094 168.207031 63.023438 170.4375 62.769531 172.632812 C 62.730469 172.996094 63.273438 173.214844 63.402344 172.835938 C 63.554688 172.382812 63.710938 171.929688 63.820312 171.460938 C 63.882812 171.488281 63.972656 171.472656 64.027344 171.386719 C 65.136719 169.496094 66.695312 167.878906 67.71875 165.933594 C 68.769531 163.917969 68.8125 161.5 70.1875 159.648438 C 70.285156 159.511719 70.09375 159.351562 69.972656 159.476562 C 68.605469 161.242188 68.453125 163.453125 67.507812 165.433594 C 66.648438 167.246094 64.996094 168.636719 64.09375 170.417969 C 64.40625 169.078125 64.664062 167.710938 64.96875 166.394531 C 65.152344 165.566406 65.335938 164.738281 65.519531 163.910156 C 65.546875 163.898438 65.578125 163.886719 65.605469 163.878906 C 67.046875 162.765625 67.824219 161.144531 68.59375 159.558594 C 69.632812 157.414062 70.828125 155.671875 72.707031 154.171875 C 73.484375 153.558594 74.28125 152.875 75.148438 152.382812 C 76.363281 151.699219 77.199219 152.875 78.257812 153.238281 C 79.832031 153.800781 81.683594 153.367188 83.152344 154.230469 C 83.066406 154.261719 82.992188 154.289062 82.902344 154.320312 C 81.890625 154.636719 80.902344 154.890625 79.957031 155.394531 C 75.933594 157.519531 73.875 161.804688 72.507812 165.9375 C 72.453125 166.109375 72.703125 166.25 72.769531 166.0625 C 73.914062 162.933594 75.441406 159.800781 78.019531 157.613281 C 78.921875 156.84375 79.914062 156.238281 81 155.800781 C 80.226562 157.4375 79.449219 158.957031 78.402344 160.476562 C 77.457031 161.859375 76.476562 163.238281 75.777344 164.75 C 74.972656 166.480469 74.851562 168.261719 74.628906 170.132812 C 74.351562 172.550781 73.394531 174.683594 71.511719 176.269531 C 71.410156 176.359375 71.53125 176.511719 71.621094 176.429688 C 73.003906 175.304688 74.054688 173.886719 74.582031 172.171875 C 75.253906 169.941406 75 167.5625 75.921875 165.378906 C 76.6875 163.542969 77.902344 161.949219 79.019531 160.304688 C 79.976562 158.902344 81.097656 157.320312 81.429688 155.613281 C 81.679688 155.523438 81.925781 155.433594 82.203125 155.367188 C 82.972656 155.160156 83.757812 154.992188 84.464844 154.605469 C 84.742188 154.457031 86.695312 153.207031 87.015625 153.871094 C 86.941406 153.847656 86.855469 153.882812 86.820312 153.976562 C 85.976562 156.183594 85.078125 158.210938 83.597656 160.085938 C 83.496094 160.222656 83.683594 160.371094 83.789062 160.25 C 85.238281 158.652344 86.488281 156.695312 87.042969 154.589844 C 87.160156 154.832031 87.574219 154.914062 87.695312 154.605469 C 88.105469 153.53125 87.09375 152.652344 86.015625 152.839844 C 85.265625 152.960938 84.605469 153.429688 83.921875 153.839844 C 83.921875 153.839844 83.917969 153.824219 83.902344 153.828125 C 82.402344 152.5625 80.449219 153.066406 78.699219 152.535156 C 77.769531 152.253906 77.113281 151.296875 76.113281 151.242188 C 75.171875 151.199219 74.34375 151.894531 73.621094 152.417969 C 72.820312 153.003906 72.058594 153.609375 71.339844 154.28125 C 71.15625 154 70.824219 153.769531 70.566406 153.597656 C 70.234375 153.367188 69.855469 153.140625 69.449219 153.070312 C 69.785156 152.121094 70.035156 151.152344 70.128906 150.125 C 70.15625 149.964844 69.882812 149.898438 69.839844 150.097656 " fill-opacity="1" fill-rule="nonzero"/></g></g></g></g></g><g fill="#ffc0cb" fill-opacity="1"><g transform="translate(54.391602, 234.885731)"><g><path d="M 31.140625 -6.21875 C 30.671875 -5.863281 29.90625 -5.320312 28.84375 -4.59375 C 27.789062 -3.875 26.953125 -3.300781 26.328125 -2.875 C 25.703125 -2.445312 24.910156 -1.910156 23.953125 -1.265625 C 22.992188 -0.617188 22.179688 -0.101562 21.515625 0.28125 C 20.859375 0.675781 20.175781 1.070312 19.46875 1.46875 C 18.019531 2.25 16.945312 2.640625 16.25 2.640625 C 15.582031 2.640625 15.25 2.269531 15.25 1.53125 C 15.25 0.394531 16.019531 -1.441406 17.5625 -3.984375 C 19.101562 -6.523438 20.644531 -8.859375 22.1875 -10.984375 C 23.738281 -13.117188 24.515625 -14.242188 24.515625 -14.359375 C 24.515625 -14.484375 24.472656 -14.546875 24.390625 -14.546875 C 23.921875 -14.109375 23.304688 -13.519531 22.546875 -12.78125 C 21.785156 -12.039062 20.328125 -10.722656 18.171875 -8.828125 C 16.023438 -6.929688 14.039062 -5.257812 12.21875 -3.8125 C 10.40625 -2.363281 8.488281 -1.046875 6.46875 0.140625 C 4.457031 1.335938 2.925781 1.9375 1.875 1.9375 C -0.0390625 1.9375 -1 0.609375 -1 -2.046875 C -1 -4.273438 -0.335938 -7.085938 0.984375 -10.484375 C 2.316406 -13.890625 4.234375 -17.457031 6.734375 -21.1875 C 9.242188 -24.925781 12.070312 -28.425781 15.21875 -31.6875 C 18.363281 -34.957031 21.988281 -37.65625 26.09375 -39.78125 C 30.195312 -41.914062 34.28125 -42.984375 38.34375 -42.984375 C 39.914062 -42.984375 40.703125 -42.394531 40.703125 -41.21875 C 40.703125 -39.695312 39.515625 -37.5 37.140625 -34.625 C 34.773438 -31.75 32.164062 -29.175781 29.3125 -26.90625 C 26.46875 -24.644531 24.398438 -23.515625 23.109375 -23.515625 C 22.597656 -23.515625 22.34375 -23.773438 22.34375 -24.296875 C 22.34375 -24.828125 22.78125 -25.617188 23.65625 -26.671875 C 24.539062 -27.734375 25.140625 -28.265625 25.453125 -28.265625 C 25.609375 -28.265625 25.6875 -28.175781 25.6875 -28 C 25.6875 -27.820312 25.441406 -27.46875 24.953125 -26.9375 C 24.460938 -26.414062 24.21875 -26.078125 24.21875 -25.921875 C 24.21875 -25.765625 24.335938 -25.6875 24.578125 -25.6875 C 25.390625 -25.6875 27 -26.722656 29.40625 -28.796875 C 31.8125 -30.867188 34.078125 -33.179688 36.203125 -35.734375 C 38.335938 -38.296875 39.40625 -40.164062 39.40625 -41.34375 C 39.40625 -42.082031 38.914062 -42.453125 37.9375 -42.453125 C 35.394531 -42.453125 32.628906 -41.640625 29.640625 -40.015625 C 26.648438 -38.398438 23.804688 -36.320312 21.109375 -33.78125 C 18.410156 -31.238281 15.800781 -28.394531 13.28125 -25.25 C 10.757812 -22.101562 8.578125 -19.015625 6.734375 -15.984375 C 4.898438 -12.953125 3.425781 -10.113281 2.3125 -7.46875 C 1.195312 -4.832031 0.640625 -2.75 0.640625 -1.21875 C 0.640625 0.300781 1.25 1.0625 2.46875 1.0625 C 4.570312 1.0625 8.753906 -1.632812 15.015625 -7.03125 C 23.109375 -14.03125 30.046875 -21.207031 35.828125 -28.5625 C 36.804688 -29.769531 37.566406 -30.375 38.109375 -30.375 C 38.660156 -30.375 38.9375 -30.164062 38.9375 -29.75 C 38.9375 -29.34375 37.039062 -26.796875 33.25 -22.109375 C 21.914062 -8.078125 16.25 -0.179688 16.25 1.578125 C 16.25 1.890625 16.40625 2.046875 16.71875 2.046875 C 17.03125 2.046875 17.445312 1.921875 17.96875 1.671875 C 18.5 1.421875 19.257812 0.972656 20.25 0.328125 C 21.25 -0.316406 22.125 -0.894531 22.875 -1.40625 C 24.664062 -2.582031 27.128906 -4.265625 30.265625 -6.453125 L 34.1875 -8.90625 C 34.457031 -9.0625 34.75 -9.140625 35.0625 -9.140625 C 35.375 -9.140625 35.53125 -9.097656 35.53125 -9.015625 C 35.53125 -8.941406 35.472656 -8.867188 35.359375 -8.796875 Z M 31.140625 -6.21875 "/></g></g></g><g fill="#ffc0cb" fill-opacity="1"><g transform="translate(83.477343, 234.885731)"><g><path d="M 19.828125 -8.734375 L 20.296875 -8.203125 C 18.492188 -7.109375 17.023438 -6.191406 15.890625 -5.453125 C 14.753906 -4.710938 13.894531 -4.34375 13.3125 -4.34375 C 12.445312 -4.34375 12.015625 -4.710938 12.015625 -5.453125 C 12.015625 -6.003906 12.316406 -7.085938 12.921875 -8.703125 C 13.535156 -10.328125 13.957031 -11.472656 14.1875 -12.140625 L 14.015625 -12.3125 C 13.859375 -12.3125 13.679688 -12.234375 13.484375 -12.078125 C 9.535156 -8.910156 6.984375 -6.78125 5.828125 -5.6875 C 4.679688 -4.59375 3.566406 -3.421875 2.484375 -2.171875 C 1.410156 -0.921875 0.828125 -0.234375 0.734375 -0.109375 C 0.640625 0.00390625 0.570312 0.0820312 0.53125 0.125 C 0.414062 0.238281 0.015625 0.296875 -0.671875 0.296875 C -1.359375 0.296875 -1.703125 0.238281 -1.703125 0.125 C -1.617188 0 -1.128906 -0.550781 -0.234375 -1.53125 C 1.953125 -3.914062 3.925781 -6.203125 5.6875 -8.390625 L 3.984375 -7.390625 C 2.191406 -6.296875 0.882812 -5.472656 0.0625 -4.921875 L -0.171875 -5.578125 L 3.515625 -7.921875 C 4.847656 -8.773438 5.992188 -9.671875 6.953125 -10.609375 C 7.910156 -11.546875 8.5625 -12.304688 8.90625 -12.890625 C 9.257812 -13.484375 9.570312 -13.972656 9.84375 -14.359375 C 10.125 -14.753906 10.378906 -14.953125 10.609375 -14.953125 C 10.847656 -14.953125 11.222656 -14.816406 11.734375 -14.546875 C 11.734375 -14.148438 11.421875 -13.460938 10.796875 -12.484375 C 10.171875 -11.515625 9.539062 -10.640625 8.90625 -9.859375 L 7.96875 -8.734375 C 7.96875 -8.660156 7.988281 -8.625 8.03125 -8.625 C 8.144531 -8.625 8.28125 -8.691406 8.4375 -8.828125 C 8.59375 -8.960938 9.25 -9.507812 10.40625 -10.46875 C 11.5625 -11.425781 12.566406 -12.242188 13.421875 -12.921875 C 14.285156 -13.609375 15.273438 -14.265625 16.390625 -14.890625 C 17.503906 -15.515625 18.316406 -15.828125 18.828125 -15.828125 C 19.335938 -15.828125 19.59375 -15.710938 19.59375 -15.484375 C 19.59375 -15.171875 18.632812 -14.503906 16.71875 -13.484375 C 16.28125 -13.253906 15.617188 -12.128906 14.734375 -10.109375 C 13.859375 -8.097656 13.421875 -6.625 13.421875 -5.6875 C 13.421875 -5.488281 13.609375 -5.390625 13.984375 -5.390625 C 14.359375 -5.390625 15.09375 -5.742188 16.1875 -6.453125 Z M 19.828125 -8.734375 "/></g></g></g><g fill="#ffc0cb" fill-opacity="1"><g transform="translate(98.430696, 234.885731)"><g><path d="M 14.78125 -15.078125 C 14.78125 -15.191406 14.703125 -15.25 14.546875 -15.25 C 13.484375 -15.25 11.835938 -14.328125 9.609375 -12.484375 C 7.390625 -10.648438 5.457031 -8.640625 3.8125 -6.453125 C 5.769531 -7.078125 8.085938 -8.484375 10.765625 -10.671875 C 13.441406 -12.859375 14.78125 -14.328125 14.78125 -15.078125 Z M 1.234375 -1.234375 C 1.234375 -0.722656 1.425781 -0.46875 1.8125 -0.46875 C 2.28125 -0.46875 3.335938 -0.789062 4.984375 -1.4375 C 6.628906 -2.082031 7.976562 -2.71875 9.03125 -3.34375 L 14.78125 -6.984375 L 14.84375 -6.21875 C 10.726562 -3.476562 7.664062 -1.734375 5.65625 -0.984375 C 3.644531 -0.242188 2.304688 0.125 1.640625 0.125 C 0.546875 0.125 0 -0.5625 0 -1.9375 C 0 -3.769531 0.660156 -5.601562 1.984375 -7.4375 C 3.316406 -9.28125 4.875 -10.785156 6.65625 -11.953125 C 8.4375 -13.128906 10.15625 -14.085938 11.8125 -14.828125 C 13.476562 -15.578125 14.738281 -15.953125 15.59375 -15.953125 C 16.457031 -15.953125 16.890625 -15.660156 16.890625 -15.078125 C 16.890625 -13.628906 15.175781 -11.867188 11.75 -9.796875 C 8.332031 -7.722656 5.488281 -6.351562 3.21875 -5.6875 C 1.894531 -3.769531 1.234375 -2.285156 1.234375 -1.234375 Z M 1.234375 -1.234375 "/></g></g></g><g fill="#ffc0cb" fill-opacity="1"><g transform="translate(111.214341, 234.885731)"><g><path d="M 14.65625 -19.53125 C 13.988281 -19.53125 13.65625 -19.832031 13.65625 -20.4375 C 13.65625 -21.039062 13.945312 -21.613281 14.53125 -22.15625 C 15.125 -22.707031 15.625 -22.984375 16.03125 -22.984375 C 16.445312 -22.984375 16.757812 -22.863281 16.96875 -22.625 C 17.1875 -22.394531 17.296875 -22.125 17.296875 -21.8125 C 17.296875 -21.5 17.019531 -21.039062 16.46875 -20.4375 C 15.925781 -19.832031 15.320312 -19.53125 14.65625 -19.53125 Z M -0.171875 -1 C 0.253906 -1.976562 1.984375 -4.207031 5.015625 -7.6875 C 8.046875 -11.164062 10.34375 -13.6875 11.90625 -15.25 C 12.132812 -15.5625 12.25 -15.785156 12.25 -15.921875 C 12.25 -16.054688 12.09375 -16.144531 11.78125 -16.1875 L 10.4375 -16.296875 C 10.125 -16.296875 9.832031 -16.140625 9.5625 -15.828125 C 6.90625 -13.128906 4.390625 -10.1875 2.015625 -7 C -0.347656 -3.820312 -1.53125 -1.847656 -1.53125 -1.078125 C -1.53125 -0.316406 -1.296875 0.0625 -0.828125 0.0625 C -0.191406 0.0625 1.078125 -0.453125 2.984375 -1.484375 C 4.898438 -2.523438 6.660156 -3.570312 8.265625 -4.625 L 10.671875 -6.21875 L 10.609375 -6.984375 C 4.316406 -2.835938 0.820312 -0.765625 0.125 -0.765625 C -0.0703125 -0.765625 -0.171875 -0.84375 -0.171875 -1 Z M -0.171875 -1 "/></g></g></g><g fill="#ffc0cb" fill-opacity="1"><g transform="translate(119.89315, 234.885731)"><g><path d="M 1.296875 -5.75 L 1.109375 -6.453125 L 3.046875 -7.6875 C 5.984375 -9.632812 7.820312 -11.007812 8.5625 -11.8125 C 9.300781 -12.613281 9.75 -13.113281 9.90625 -13.3125 C 10.925781 -14.601562 11.492188 -15.328125 11.609375 -15.484375 C 12.078125 -15.328125 12.3125 -14.859375 12.3125 -14.078125 C 11.53125 -12.941406 10.472656 -11.582031 9.140625 -10 C 7.816406 -8.414062 6.722656 -7.101562 5.859375 -6.0625 C 5.003906 -5.03125 4.578125 -4.4375 4.578125 -4.28125 C 4.578125 -4.125 4.601562 -4.046875 4.65625 -4.046875 C 4.71875 -4.046875 5.007812 -4.25 5.53125 -4.65625 C 6.0625 -5.070312 7.503906 -6.097656 9.859375 -7.734375 C 14.585938 -11.023438 17.59375 -13.109375 18.875 -13.984375 C 20.164062 -14.867188 21 -15.3125 21.375 -15.3125 C 21.75 -15.3125 21.9375 -14.925781 21.9375 -14.15625 C 21.9375 -13.394531 21.347656 -12.25 20.171875 -10.71875 C 18.992188 -9.195312 17.703125 -7.796875 16.296875 -6.515625 C 12.546875 -3.066406 10.671875 -1.171875 10.671875 -0.828125 C 10.671875 -0.785156 10.75 -0.765625 10.90625 -0.765625 C 11.375 -0.765625 14.015625 -2.304688 18.828125 -5.390625 L 21.234375 -6.984375 L 21.28125 -6.21875 C 14.988281 -2.03125 11.160156 0.0625 9.796875 0.0625 C 9.554688 0.0625 9.4375 -0.0546875 9.4375 -0.296875 C 9.4375 -1.742188 10.34375 -3.453125 12.15625 -5.421875 C 13.976562 -7.398438 15.789062 -9.179688 17.59375 -10.765625 C 19.394531 -12.347656 20.296875 -13.390625 20.296875 -13.890625 C 20.296875 -13.972656 20.253906 -14.015625 20.171875 -14.015625 C 19.035156 -13.460938 16.40625 -11.726562 12.28125 -8.8125 C 8.15625 -5.90625 5.742188 -4.195312 5.046875 -3.6875 C 3.203125 -2.320312 2.234375 -1.609375 2.140625 -1.546875 C 2.046875 -1.492188 1.84375 -1.289062 1.53125 -0.9375 C 0.820312 -0.195312 0.175781 0.171875 -0.40625 0.171875 C -1.34375 0.0976562 -1.832031 0.0390625 -1.875 0 C -1.914062 -0.0390625 -1.9375 -0.0820312 -1.9375 -0.125 C -1.9375 -0.15625 -1.601562 -0.523438 -0.9375 -1.234375 C -0.3125 -1.898438 0.3125 -2.5625 0.9375 -3.21875 C 3.007812 -5.53125 4.4375 -7.175781 5.21875 -8.15625 Z M 1.296875 -5.75 "/></g></g></g><g fill="#ffc0cb" fill-opacity="1"><g transform="translate(139.127269, 234.885731)"><g/></g></g><g fill="#ffc0cb" fill-opacity="1"><g transform="translate(152.028204, 234.885731)"><g><path d="M 14.078125 5.515625 C 15.210938 5.515625 16.414062 4.253906 17.6875 1.734375 C 18.957031 -0.785156 20.0625 -3.863281 21 -7.5 C 16.1875 -0.851562 13.78125 3.304688 13.78125 4.984375 C 13.78125 5.253906 13.878906 5.429688 14.078125 5.515625 Z M 20.53125 -20.234375 C 20.53125 -16.242188 20.921875 -12.957031 21.703125 -10.375 C 22.597656 -14.40625 23.046875 -17.679688 23.046875 -20.203125 C 23.046875 -22.722656 22.597656 -23.984375 21.703125 -23.984375 C 20.921875 -23.984375 20.53125 -22.734375 20.53125 -20.234375 Z M 3.578125 -0.640625 L 4.390625 -1.109375 C 4.515625 -1.109375 4.578125 -1.050781 4.578125 -0.9375 C 4.578125 -0.625 4.085938 -0.117188 3.109375 0.578125 C 2.128906 1.285156 1.363281 1.640625 0.8125 1.640625 C 0.269531 1.640625 0 1.367188 0 0.828125 C 0 -1.242188 2.84375 -6.113281 8.53125 -13.78125 C 14.21875 -21.445312 19.015625 -27.390625 22.921875 -31.609375 L 23.046875 -31.84375 C 23.046875 -31.914062 22.988281 -31.953125 22.875 -31.953125 C 21.34375 -30.941406 18.15625 -29.367188 13.3125 -27.234375 C 8.46875 -25.109375 4.988281 -24.046875 2.875 -24.046875 C 1.695312 -24.046875 1.109375 -24.4375 1.109375 -25.21875 C 1.109375 -25.445312 1.273438 -25.765625 1.609375 -26.171875 C 1.941406 -26.585938 2.175781 -26.796875 2.3125 -26.796875 C 2.445312 -26.796875 2.648438 -26.664062 2.921875 -26.40625 C 3.203125 -26.15625 4.054688 -26.03125 5.484375 -26.03125 C 6.910156 -26.03125 9.320312 -26.664062 12.71875 -27.9375 C 16.125 -29.207031 19.664062 -30.898438 23.34375 -33.015625 C 24.59375 -33.753906 25.625 -34.492188 26.4375 -35.234375 C 27.257812 -35.984375 28.207031 -36.925781 29.28125 -38.0625 C 30.363281 -39.195312 31.070312 -39.925781 31.40625 -40.25 C 31.738281 -40.582031 32.363281 -41.25 33.28125 -42.25 C 34.195312 -43.25 34.929688 -44.019531 35.484375 -44.5625 C 37.003906 -46.007812 38.253906 -46.734375 39.234375 -46.734375 C 39.546875 -46.734375 39.703125 -46.597656 39.703125 -46.328125 C 39.703125 -44.765625 37.179688 -42.144531 32.140625 -38.46875 C 30.222656 -37.019531 29.109375 -36.117188 28.796875 -35.765625 C 24.378906 -30.921875 19.0625 -24.382812 12.84375 -16.15625 C 6.625 -7.925781 3.492188 -2.816406 3.453125 -0.828125 C 3.453125 -0.703125 3.492188 -0.640625 3.578125 -0.640625 Z M 33.484375 -8.796875 L 29.265625 -6.21875 C 27.773438 -5.28125 26.453125 -4.8125 25.296875 -4.8125 C 24.148438 -4.8125 23.125 -5.222656 22.21875 -6.046875 C 21.125 -2.566406 19.804688 0.34375 18.265625 2.6875 C 16.722656 5.039062 15.207031 6.21875 13.71875 6.21875 C 13.207031 6.21875 12.953125 5.984375 12.953125 5.515625 C 12.953125 3.046875 15.492188 -1.703125 20.578125 -8.734375 C 19.566406 -11.203125 19.0625 -14.679688 19.0625 -19.171875 C 19.0625 -20.703125 19.296875 -21.972656 19.765625 -22.984375 C 20.234375 -24.003906 20.878906 -24.515625 21.703125 -24.515625 C 23.578125 -24.515625 24.515625 -22.554688 24.515625 -18.640625 C 24.515625 -17.003906 24.335938 -15.25 23.984375 -13.375 C 29.421875 -20.445312 35.617188 -27.8125 42.578125 -35.46875 C 49.535156 -43.132812 54.1875 -47.828125 56.53125 -49.546875 C 57.070312 -49.898438 57.734375 -50.078125 58.515625 -50.078125 C 59.304688 -50.078125 59.703125 -49.941406 59.703125 -49.671875 C 59.703125 -49.472656 59.625 -49.296875 59.46875 -49.140625 C 59.269531 -48.941406 58.953125 -48.644531 58.515625 -48.25 C 58.085938 -47.863281 57.71875 -47.515625 57.40625 -47.203125 C 43.726562 -33.523438 32.664062 -21.660156 24.21875 -11.609375 L 23.515625 -10.734375 C 23.472656 -10.617188 23.375 -10.195312 23.21875 -9.46875 C 23.0625 -8.75 22.925781 -8.210938 22.8125 -7.859375 C 23.632812 -6.453125 24.691406 -5.75 25.984375 -5.75 C 26.722656 -5.75 27.441406 -5.941406 28.140625 -6.328125 C 29.316406 -6.992188 30.707031 -7.851562 32.3125 -8.90625 C 32.582031 -9.0625 32.875 -9.140625 33.1875 -9.140625 C 33.5 -9.140625 33.65625 -9.097656 33.65625 -9.015625 C 33.65625 -8.941406 33.597656 -8.867188 33.484375 -8.796875 Z M 33.484375 -8.796875 "/></g></g></g><g fill="#ffc0cb" fill-opacity="1"><g transform="translate(179.237446, 234.885731)"><g><path d="M 9.734375 -12.671875 C 10.085938 -13.097656 10.5 -13.644531 10.96875 -14.3125 C 11.4375 -14.976562 11.828125 -15.3125 12.140625 -15.3125 C 12.453125 -15.3125 12.785156 -15.015625 13.140625 -14.421875 C 13.140625 -13.722656 11.367188 -11.414062 7.828125 -7.5 C 4.285156 -3.59375 2.515625 -1.460938 2.515625 -1.109375 C 2.515625 -1.035156 2.628906 -1 2.859375 -1 C 3.097656 -1 4.472656 -1.800781 6.984375 -3.40625 C 12.222656 -6.757812 16.738281 -10.453125 20.53125 -14.484375 C 21.46875 -15.347656 22.285156 -15.78125 22.984375 -15.78125 C 23.023438 -15.78125 23.066406 -15.78125 23.109375 -15.78125 C 23.847656 -15.738281 24.21875 -15.640625 24.21875 -15.484375 L 24.15625 -15.359375 C 22.476562 -13.796875 19.976562 -11.15625 16.65625 -7.4375 C 13.332031 -3.726562 11.671875 -1.539062 11.671875 -0.875 C 11.671875 -0.71875 11.796875 -0.640625 12.046875 -0.640625 C 12.304688 -0.640625 14.976562 -2.242188 20.0625 -5.453125 L 22.453125 -6.984375 L 22.515625 -6.28125 C 22.046875 -5.96875 21.441406 -5.578125 20.703125 -5.109375 C 14.878906 -1.429688 11.476562 0.40625 10.5 0.40625 C 10.144531 0.40625 9.96875 0.210938 9.96875 -0.171875 C 9.96875 -0.566406 10.445312 -1.679688 11.40625 -3.515625 C 12.363281 -5.359375 13.054688 -6.53125 13.484375 -7.03125 L 12.546875 -6.515625 C 6.640625 -2.285156 3.101562 -0.171875 1.9375 -0.171875 C 1.46875 -0.171875 1.234375 -0.4375 1.234375 -0.96875 C 1.234375 -1.5 1.445312 -2.179688 1.875 -3.015625 C 2.300781 -3.859375 2.703125 -4.535156 3.078125 -5.046875 C 3.453125 -5.554688 4.007812 -6.25 4.75 -7.125 C 5.488281 -8 5.878906 -8.457031 5.921875 -8.5 L 1.34375 -5.8125 L 1.171875 -6.453125 L 3.171875 -7.6875 C 6.566406 -9.875 8.753906 -11.535156 9.734375 -12.671875 Z M 9.734375 -12.671875 "/></g></g></g><g fill="#ffc0cb" fill-opacity="1"><g transform="translate(199.644378, 234.885731)"><g><path d="M 2.046875 -6.21875 C 1.859375 -6.101562 1.625 -5.945312 1.34375 -5.75 L 1.171875 -6.453125 C 5.585938 -9.265625 9.1875 -11.453125 11.96875 -13.015625 L 13.546875 -13.953125 C 14.128906 -14.421875 14.773438 -14.96875 15.484375 -15.59375 C 16.960938 -16.769531 17.742188 -17.335938 17.828125 -17.296875 C 18.023438 -17.296875 18.125 -17.207031 18.125 -17.03125 C 18.125 -16.851562 17.96875 -16.5625 17.65625 -16.15625 C 17.34375 -15.75 16.898438 -15.269531 16.328125 -14.71875 C 15.765625 -14.164062 15.425781 -13.8125 15.3125 -13.65625 C 14.71875 -13.070312 13.742188 -11.207031 12.390625 -8.0625 C 11.046875 -4.914062 10.316406 -3.222656 10.203125 -2.984375 C 10.203125 -2.828125 10.25 -2.75 10.34375 -2.75 C 10.445312 -2.75 10.519531 -2.769531 10.5625 -2.8125 L 17.125 -6.984375 L 17.1875 -6.21875 C 16.71875 -5.945312 15.929688 -5.457031 14.828125 -4.75 C 13.734375 -4.039062 12.960938 -3.550781 12.515625 -3.28125 C 12.066406 -3.007812 11.410156 -2.609375 10.546875 -2.078125 C 9.691406 -1.554688 9.03125 -1.175781 8.5625 -0.9375 C 8.09375 -0.707031 7.546875 -0.4375 6.921875 -0.125 C 5.316406 0.351562 4.300781 0.59375 3.875 0.59375 C 3.832031 0.59375 3.8125 0.59375 3.8125 0.59375 C 2.757812 0.59375 1.898438 0.28125 1.234375 -0.34375 C 0.566406 -0.976562 0.234375 -1.703125 0.234375 -2.515625 C 0.234375 -3.335938 0.515625 -4.039062 1.078125 -4.625 C 1.648438 -5.21875 2.328125 -5.515625 3.109375 -5.515625 C 3.890625 -5.515625 4.28125 -5.203125 4.28125 -4.578125 C 4.28125 -4.222656 4.148438 -3.890625 3.890625 -3.578125 C 3.640625 -3.265625 3.328125 -3.109375 2.953125 -3.109375 C 2.585938 -3.109375 2.375 -3.28125 2.3125 -3.625 C 2.257812 -3.976562 2.15625 -4.15625 2 -4.15625 C 1.71875 -4.15625 1.488281 -4.019531 1.3125 -3.75 C 1.144531 -3.476562 1.0625 -3.085938 1.0625 -2.578125 C 1.0625 -2.066406 1.296875 -1.566406 1.765625 -1.078125 C 2.234375 -0.597656 2.894531 -0.359375 3.75 -0.359375 C 4.613281 -0.359375 5.425781 -0.671875 6.1875 -1.296875 C 6.945312 -1.921875 7.460938 -2.46875 7.734375 -2.9375 C 8.015625 -3.40625 8.601562 -4.722656 9.5 -6.890625 C 10.394531 -9.054688 11.332031 -10.765625 12.3125 -12.015625 L 12.4375 -12.25 C 12.4375 -12.289062 12.375 -12.3125 12.25 -12.3125 C 11.9375 -12.3125 9.335938 -10.785156 4.453125 -7.734375 Z M 2.046875 -6.21875 "/></g></g></g><g fill="#ffc0cb" fill-opacity="1"><g transform="translate(214.773649, 234.885731)"><g><path d="M 2.046875 -6.21875 C 1.859375 -6.101562 1.625 -5.945312 1.34375 -5.75 L 1.171875 -6.453125 C 5.585938 -9.265625 9.1875 -11.453125 11.96875 -13.015625 L 13.546875 -13.953125 C 14.128906 -14.421875 14.773438 -14.96875 15.484375 -15.59375 C 16.960938 -16.769531 17.742188 -17.335938 17.828125 -17.296875 C 18.023438 -17.296875 18.125 -17.207031 18.125 -17.03125 C 18.125 -16.851562 17.96875 -16.5625 17.65625 -16.15625 C 17.34375 -15.75 16.898438 -15.269531 16.328125 -14.71875 C 15.765625 -14.164062 15.425781 -13.8125 15.3125 -13.65625 C 14.71875 -13.070312 13.742188 -11.207031 12.390625 -8.0625 C 11.046875 -4.914062 10.316406 -3.222656 10.203125 -2.984375 C 10.203125 -2.828125 10.25 -2.75 10.34375 -2.75 C 10.445312 -2.75 10.519531 -2.769531 10.5625 -2.8125 L 17.125 -6.984375 L 17.1875 -6.21875 C 16.71875 -5.945312 15.929688 -5.457031 14.828125 -4.75 C 13.734375 -4.039062 12.960938 -3.550781 12.515625 -3.28125 C 12.066406 -3.007812 11.410156 -2.609375 10.546875 -2.078125 C 9.691406 -1.554688 9.03125 -1.175781 8.5625 -0.9375 C 8.09375 -0.707031 7.546875 -0.4375 6.921875 -0.125 C 5.316406 0.351562 4.300781 0.59375 3.875 0.59375 C 3.832031 0.59375 3.8125 0.59375 3.8125 0.59375 C 2.757812 0.59375 1.898438 0.28125 1.234375 -0.34375 C 0.566406 -0.976562 0.234375 -1.703125 0.234375 -2.515625 C 0.234375 -3.335938 0.515625 -4.039062 1.078125 -4.625 C 1.648438 -5.21875 2.328125 -5.515625 3.109375 -5.515625 C 3.890625 -5.515625 4.28125 -5.203125 4.28125 -4.578125 C 4.28125 -4.222656 4.148438 -3.890625 3.890625 -3.578125 C 3.640625 -3.265625 3.328125 -3.109375 2.953125 -3.109375 C 2.585938 -3.109375 2.375 -3.28125 2.3125 -3.625 C 2.257812 -3.976562 2.15625 -4.15625 2 -4.15625 C 1.71875 -4.15625 1.488281 -4.019531 1.3125 -3.75 C 1.144531 -3.476562 1.0625 -3.085938 1.0625 -2.578125 C 1.0625 -2.066406 1.296875 -1.566406 1.765625 -1.078125 C 2.234375 -0.597656 2.894531 -0.359375 3.75 -0.359375 C 4.613281 -0.359375 5.425781 -0.671875 6.1875 -1.296875 C 6.945312 -1.921875 7.460938 -2.46875 7.734375 -2.9375 C 8.015625 -3.40625 8.601562 -4.722656 9.5 -6.890625 C 10.394531 -9.054688 11.332031 -10.765625 12.3125 -12.015625 L 12.4375 -12.25 C 12.4375 -12.289062 12.375 -12.3125 12.25 -12.3125 C 11.9375 -12.3125 9.335938 -10.785156 4.453125 -7.734375 Z M 2.046875 -6.21875 "/></g></g></g><g fill="#ffc0cb" fill-opacity="1"><g transform="translate(229.90292, 234.885731)"><g><path d="M 14.78125 -15.078125 C 14.78125 -15.191406 14.703125 -15.25 14.546875 -15.25 C 13.484375 -15.25 11.835938 -14.328125 9.609375 -12.484375 C 7.390625 -10.648438 5.457031 -8.640625 3.8125 -6.453125 C 5.769531 -7.078125 8.085938 -8.484375 10.765625 -10.671875 C 13.441406 -12.859375 14.78125 -14.328125 14.78125 -15.078125 Z M 1.234375 -1.234375 C 1.234375 -0.722656 1.425781 -0.46875 1.8125 -0.46875 C 2.28125 -0.46875 3.335938 -0.789062 4.984375 -1.4375 C 6.628906 -2.082031 7.976562 -2.71875 9.03125 -3.34375 L 14.78125 -6.984375 L 14.84375 -6.21875 C 10.726562 -3.476562 7.664062 -1.734375 5.65625 -0.984375 C 3.644531 -0.242188 2.304688 0.125 1.640625 0.125 C 0.546875 0.125 0 -0.5625 0 -1.9375 C 0 -3.769531 0.660156 -5.601562 1.984375 -7.4375 C 3.316406 -9.28125 4.875 -10.785156 6.65625 -11.953125 C 8.4375 -13.128906 10.15625 -14.085938 11.8125 -14.828125 C 13.476562 -15.578125 14.738281 -15.953125 15.59375 -15.953125 C 16.457031 -15.953125 16.890625 -15.660156 16.890625 -15.078125 C 16.890625 -13.628906 15.175781 -11.867188 11.75 -9.796875 C 8.332031 -7.722656 5.488281 -6.351562 3.21875 -5.6875 C 1.894531 -3.769531 1.234375 -2.285156 1.234375 -1.234375 Z M 1.234375 -1.234375 "/></g></g></g><g fill="#ffc0cb" fill-opacity="1"><g transform="translate(242.686565, 234.885731)"><g><path d="M 14.65625 -19.53125 C 13.988281 -19.53125 13.65625 -19.832031 13.65625 -20.4375 C 13.65625 -21.039062 13.945312 -21.613281 14.53125 -22.15625 C 15.125 -22.707031 15.625 -22.984375 16.03125 -22.984375 C 16.445312 -22.984375 16.757812 -22.863281 16.96875 -22.625 C 17.1875 -22.394531 17.296875 -22.125 17.296875 -21.8125 C 17.296875 -21.5 17.019531 -21.039062 16.46875 -20.4375 C 15.925781 -19.832031 15.320312 -19.53125 14.65625 -19.53125 Z M -0.171875 -1 C 0.253906 -1.976562 1.984375 -4.207031 5.015625 -7.6875 C 8.046875 -11.164062 10.34375 -13.6875 11.90625 -15.25 C 12.132812 -15.5625 12.25 -15.785156 12.25 -15.921875 C 12.25 -16.054688 12.09375 -16.144531 11.78125 -16.1875 L 10.4375 -16.296875 C 10.125 -16.296875 9.832031 -16.140625 9.5625 -15.828125 C 6.90625 -13.128906 4.390625 -10.1875 2.015625 -7 C -0.347656 -3.820312 -1.53125 -1.847656 -1.53125 -1.078125 C -1.53125 -0.316406 -1.296875 0.0625 -0.828125 0.0625 C -0.191406 0.0625 1.078125 -0.453125 2.984375 -1.484375 C 4.898438 -2.523438 6.660156 -3.570312 8.265625 -4.625 L 10.671875 -6.21875 L 10.609375 -6.984375 C 4.316406 -2.835938 0.820312 -0.765625 0.125 -0.765625 C -0.0703125 -0.765625 -0.171875 -0.84375 -0.171875 -1 Z M -0.171875 -1 "/></g></g></g><g fill="#ffc0cb" fill-opacity="1"><g transform="translate(251.365375, 234.885731)"><g><path d="M 1.296875 -5.75 L 1.109375 -6.453125 L 3.046875 -7.6875 C 5.984375 -9.632812 7.820312 -11.007812 8.5625 -11.8125 C 9.300781 -12.613281 9.75 -13.113281 9.90625 -13.3125 C 10.925781 -14.601562 11.492188 -15.328125 11.609375 -15.484375 C 12.078125 -15.328125 12.3125 -14.859375 12.3125 -14.078125 C 11.53125 -12.941406 10.472656 -11.582031 9.140625 -10 C 7.816406 -8.414062 6.722656 -7.101562 5.859375 -6.0625 C 5.003906 -5.03125 4.578125 -4.4375 4.578125 -4.28125 C 4.578125 -4.125 4.601562 -4.046875 4.65625 -4.046875 C 4.71875 -4.046875 5.007812 -4.25 5.53125 -4.65625 C 6.0625 -5.070312 7.503906 -6.097656 9.859375 -7.734375 C 14.585938 -11.023438 17.59375 -13.109375 18.875 -13.984375 C 20.164062 -14.867188 21 -15.3125 21.375 -15.3125 C 21.75 -15.3125 21.9375 -14.925781 21.9375 -14.15625 C 21.9375 -13.394531 21.347656 -12.25 20.171875 -10.71875 C 18.992188 -9.195312 17.703125 -7.796875 16.296875 -6.515625 C 12.546875 -3.066406 10.671875 -1.171875 10.671875 -0.828125 C 10.671875 -0.785156 10.75 -0.765625 10.90625 -0.765625 C 11.375 -0.765625 14.015625 -2.304688 18.828125 -5.390625 L 21.234375 -6.984375 L 21.28125 -6.21875 C 14.988281 -2.03125 11.160156 0.0625 9.796875 0.0625 C 9.554688 0.0625 9.4375 -0.0546875 9.4375 -0.296875 C 9.4375 -1.742188 10.34375 -3.453125 12.15625 -5.421875 C 13.976562 -7.398438 15.789062 -9.179688 17.59375 -10.765625 C 19.394531 -12.347656 20.296875 -13.390625 20.296875 -13.890625 C 20.296875 -13.972656 20.253906 -14.015625 20.171875 -14.015625 C 19.035156 -13.460938 16.40625 -11.726562 12.28125 -8.8125 C 8.15625 -5.90625 5.742188 -4.195312 5.046875 -3.6875 C 3.203125 -2.320312 2.234375 -1.609375 2.140625 -1.546875 C 2.046875 -1.492188 1.84375 -1.289062 1.53125 -0.9375 C 0.820312 -0.195312 0.175781 0.171875 -0.40625 0.171875 C -1.34375 0.0976562 -1.832031 0.0390625 -1.875 0 C -1.914062 -0.0390625 -1.9375 -0.0820312 -1.9375 -0.125 C -1.9375 -0.15625 -1.601562 -0.523438 -0.9375 -1.234375 C -0.3125 -1.898438 0.3125 -2.5625 0.9375 -3.21875 C 3.007812 -5.53125 4.4375 -7.175781 5.21875 -8.15625 Z M 1.296875 -5.75 "/></g></g></g></svg>